<svg viewBox="0 0 512 153" xmlns="http://www.w3.org/2000/svg">
  <path fill="#7F54B3" d="M46.6 0h418.8C492 0 512 20 512 46.6v59.5c0 26.6-20 46.6-46.6 46.6H46.6C20 152.7 0 132.7 0 106.1V46.6C0 20 20 0 46.6 0z"/>
  <path fill="#FFF" d="M37.5 38h24.7c7.7 0 14.2 2.6 19.3 7.8 5.2 5.2 7.8 11.7 7.8 19.5 0 7.7-2.6 14.2-7.8 19.3-5.2 5.2-11.7 7.8-19.3 7.8H51.1v22.1H37.5V38zm24.4 41.3c3.9 0 7.1-1.3 9.6-4 2.5-2.6 3.8-5.9 3.8-9.8 0-3.9-1.3-7.2-3.8-9.8-2.5-2.6-5.7-4-9.6-4H51.1v27.6h10.8zM149.7 114.5h-13.3l-7.9-25.9-14.9 29.3-14.9-29.3-7.9 25.9H77.5l16.1-47.8 14.9 31.5 14.9-31.5 16.3 47.8zM197.8 67.9c6.6 6.6 9.9 14.5 9.9 23.7 0 9.2-3.3 17.1-9.9 23.7-6.6 6.6-14.5 9.9-23.7 9.9-9.2 0-17.1-3.3-23.7-9.9-6.6-6.6-9.9-14.5-9.9-23.7 0-9.2 3.3-17.1 9.9-23.7 6.6-6.6 14.5-9.9 23.7-9.9 9.2 0 17.1 3.3 23.7 9.9zm-37.9 9.3c-3.9 3.9-5.9 8.7-5.9 14.4 0 5.7 2 10.5 5.9 14.4 3.9 3.9 8.7 5.9 14.2 5.9 5.5 0 10.3-2 14.2-5.9 3.9-3.9 5.9-8.7 5.9-14.4 0-5.7-2-10.5-5.9-14.4-3.9-3.9-8.7-5.9-14.2-5.9-5.5 0-10.3 2-14.2 5.9zM266.5 67.9c6.6 6.6 9.9 14.5 9.9 23.7 0 9.2-3.3 17.1-9.9 23.7-6.6 6.6-14.5 9.9-23.7 9.9-9.2 0-17.1-3.3-23.7-9.9-6.6-6.6-9.9-14.5-9.9-23.7 0-9.2 3.3-17.1 9.9-23.7 6.6-6.6 14.5-9.9 23.7-9.9 9.2 0 17.1 3.3 23.7 9.9zm-37.9 9.3c-3.9 3.9-5.9 8.7-5.9 14.4 0 5.7 2 10.5 5.9 14.4 3.9 3.9 8.7 5.9 14.2 5.9 5.5 0 10.3-2 14.2-5.9 3.9-3.9 5.9-8.7 5.9-14.4 0-5.7-2-10.5-5.9-14.4-3.9-3.9-8.7-5.9-14.2-5.9-5.5 0-10.3 2-14.2 5.9z"/>
</svg>
